<?xml version="1.0" encoding="UTF-8"?>
<svg xmlns="http://www.w3.org/2000/svg" viewBox="0 0 256 256" width="256" height="256">
  <defs>
    <!-- Terminal screen glow effect -->
    <filter id="glow">
      <feGaussianBlur stdDeviation="3" result="coloredBlur"/>
      <feMerge>
        <feMergeNode in="coloredBlur"/>
        <feMergeNode in="SourceGraphic"/>
      </feMerge>
    </filter>

    <!-- Scanline pattern -->
    <pattern id="scanlines" x="0" y="0" width="2" height="2" patternUnits="userSpaceOnUse">
      <rect width="2" height="1" fill="rgba(0, 255, 0, 0.05)"/>
      <rect width="2" height="1" y="1" fill="rgba(0, 0, 0, 0.1)"/>
    </pattern>
  </defs>

  <!-- Background -->
  <rect width="256" height="256" fill="#000000" rx="16"/>

  <!-- Terminal window frame -->
  <rect x="16" y="24" width="224" height="208" fill="#0a0a0a" stroke="#00ff00" stroke-width="2" rx="8"/>

  <!-- Terminal header bar -->
  <rect x="16" y="24" width="224" height="32" fill="#1a1a1a" rx="8 8 0 0"/>

  <!-- Traffic light buttons -->
  <circle cx="32" cy="40" r="6" fill="#ff5f56"/>
  <circle cx="52" cy="40" r="6" fill="#ffbd2e"/>
  <circle cx="72" cy="40" r="6" fill="#27ca3f"/>

  <!-- Terminal title -->
  <text x="96" y="44" font-family="monospace" font-size="12" fill="#00ff00" font-weight="bold">
    mael@portfolio:~$
  </text>

  <!-- Terminal screen area -->
  <rect x="20" y="60" width="216" height="168" fill="#000000" rx="4"/>

  <!-- Scanline overlay -->
  <rect x="20" y="60" width="216" height="168" fill="url(#scanlines)" rx="4"/>

  <!-- Terminal content -->
  <g font-family="monospace" font-size="11" fill="#00ff00" filter="url(#glow)">
    <!-- Command prompt and code -->
    <text x="28" y="80">mael@dev:~/portfolio$</text>
    <text x="28" y="100" fill="#00dd00">const developer = {</text>
    <text x="36" y="116" fill="#00bb00">name: "Maël RABOT",</text>
    <text x="36" y="132" fill="#00bb00">skills: ["React", "C++"],</text>
    <text x="36" y="148" fill="#00bb00">passion: "Robotics",</text>
    <text x="36" y="164" fill="#00bb00">status: "Building..."</text>
    <text x="28" y="180" fill="#00dd00">};</text>

    <!-- Cursor -->
    <rect x="28" y="196" width="8" height="12" fill="#00ff00">
      <animate attributeName="opacity" values="1;0;1" dur="1s" repeatCount="indefinite"/>
    </rect>
  </g>

  <!-- Matrix-style falling characters in background -->
  <g font-family="monospace" font-size="8" fill="#003300" opacity="0.3">
    <text x="200" y="80">1</text>
    <text x="200" y="100">0</text>
    <text x="200" y="120">1</text>
    <text x="200" y="140">1</text>
    <text x="200" y="160">0</text>

    <text x="210" y="90">0</text>
    <text x="210" y="110">1</text>
    <text x="210" y="130">0</text>
    <text x="210" y="150">1</text>
    <text x="210" y="170">1</text>

    <text x="220" y="85">1</text>
    <text x="220" y="105">1</text>
    <text x="220" y="125">0</text>
    <text x="220" y="145">0</text>
    <text x="220" y="165">1</text>
  </g>

  <!-- Outer glow effect -->
  <rect x="16" y="24" width="224" height="208" fill="none" stroke="#00ff00" stroke-width="1" opacity="0.5" rx="8"/>
</svg>